<svg width="303" height="172" viewBox="0 0 303 172" fill="none" xmlns="http://www.w3.org/2000/svg">
<rect x="62" y="87" width="44" height="44" stroke="#FEEB2C" stroke-width="6"/>
<rect x="180" y="87" width="44" height="44" stroke="#FEEB2C" stroke-width="6"/>
<rect x="121" y="87" width="44" height="44" stroke="#FEEB2C" stroke-width="6"/>
<rect x="121" y="29" width="44" height="44" stroke="#FEEB2C" stroke-width="6"/>
<line x1="144.768" y1="39.7678" x2="128.768" y2="55.7678" stroke="#FEEB2C" stroke-width="5"/>
<line x1="157.232" y1="55.7678" x2="141.232" y2="39.7678" stroke="#FEEB2C" stroke-width="5"/>
<line x1="73.7678" y1="107.232" x2="89.7678" y2="123.232" stroke="#FEEB2C" stroke-width="5"/>
<line x1="89.7678" y1="94.7678" x2="73.7678" y2="110.768" stroke="#FEEB2C" stroke-width="5"/>
<line x1="141.232" y1="117.232" x2="157.232" y2="101.232" stroke="#FEEB2C" stroke-width="5"/>
<line x1="128.768" y1="101.232" x2="144.768" y2="117.232" stroke="#FEEB2C" stroke-width="5"/>
<line x1="212.232" y1="110.768" x2="196.232" y2="94.7678" stroke="#FEEB2C" stroke-width="5"/>
<line x1="196.232" y1="123.232" x2="212.232" y2="107.232" stroke="#FEEB2C" stroke-width="5"/>
<path d="M132.5 10.5V9H131V0H134V9H138.5V0H141.5V9H140V10.5H132.5ZM143 12V3H152V4.5H153.5V7.5H152V9H146V12H143ZM146 7.5H150.5V4.5H146V7.5Z" fill="#FF074E"/>
<path d="M120 157.5V147H127.5V148.5H129V150H130.5V154.5H129V156H127.5V157.5H120ZM123 156H126V154.5H127.5V150H126V148.5H123V156ZM133.5 157.5V156H132V151.5H133.5V150H141V151.5H142.5V156H141V157.5H133.5ZM135 156H139.5V151.5H135V156ZM147 156H148.5V157.5H145.5V156H144V150H147V156ZM150 150V156H148.5V150H150ZM154.5 150V156H153V157.5H150V156H151.5V150H154.5ZM156 157.5V150H165V151.5H166.5V157.5H163.5V151.5H159V157.5H156Z" fill="#FF074E"/>
<path d="M1.5 113.5V103H4.5V112H10.5V113.5H1.5ZM13.5 113.5V112H12V107.5H13.5V106H21V107.5H22.5V110.5H15V112H21V113.5H13.5ZM15 109H19.5V107.5H15V109ZM28.5 113.5V107.5H25.5V106H28.5V104.5H30V103H34.5V104.5H31.5V106H34.5V107.5H31.5V113.5H28.5ZM40.5 113.5V107.5H37.5V106H40.5V103H43.5V106H46.5V107.5H43.5V113.5H40.5Z" fill="#FF074E"/>
<path d="M241 113.5V103H250V104.5H251.5V109H248.5V110.5H250V112H251.5V113.5H247V112H245.5V110.5H244V113.5H241ZM244 109H247V107.5H248.5V104.5H244V109ZM257.5 104.5V103H260.5V104.5H257.5ZM254.5 113.5V112H257.5V107.5H256V106H260.5V112H263.5V113.5H254.5ZM266.5 115V113.5H272.5V112H266.5V110.5H265V107.5H266.5V106H275.5V113.5H274V115H266.5ZM268 110.5H272.5V107.5H268V110.5ZM277 113.5V103H280V106H286V107.5H287.5V113.5H284.5V107.5H280V113.5H277ZM293.5 113.5V107.5H290.5V106H293.5V103H296.5V106H299.5V107.5H296.5V113.5H293.5Z" fill="#FF074E"/>
</svg>
